<svg id="Layer_1" data-name="Layer 1" xmlns="http://www.w3.org/2000/svg" viewBox="0 0 453.44 203.96"><defs><style>.cls-1,.cls-2{fill:#ffe9ea;}.cls-2{fill-opacity:0;}</style></defs><path id="c2kVFtxRb1" class="cls-1" d="M453.44,278.87a13.45,13.45,0,0,0,13.45,13.45H626.54a13.45,13.45,0,0,0,10-22.45L476.88,92.81a13.45,13.45,0,0,0-23.44,9Z" transform="translate(-186.56 -88.36)"/><path id="c2kVFtxRb1-2" data-name="c2kVFtxRb1" class="cls-2" d="M453.44,278.87a13.45,13.45,0,0,0,13.45,13.45H626.54a13.45,13.45,0,0,0,10-22.45L476.88,92.81a13.45,13.45,0,0,0-23.44,9Z" transform="translate(-186.56 -88.36)"/><path id="fDOfESgg" class="cls-1" d="M511.8,200.65q20.85,0,20.85,20.85v50q0,20.85-20.85,20.85H207.41q-20.85,0-20.85-20.85v-50q0-20.85,20.85-20.85Z" transform="translate(-186.56 -88.36)"/><path id="fDOfESgg-2" data-name="fDOfESgg" class="cls-2" d="M511.8,200.65q20.85,0,20.85,20.85v50q0,20.85-20.85,20.85H207.41q-20.85,0-20.85-20.85v-50q0-20.85,20.85-20.85Z" transform="translate(-186.56 -88.36)"/></svg>