<svg id="Layer_1" data-name="Layer 1" xmlns="http://www.w3.org/2000/svg" viewBox="0 0 453.44 203.96"><defs><style>.cls-1,.cls-2{fill:#ffe9ea;}.cls-2{fill-opacity:0;}</style></defs><path id="c1b1eENXD5" class="cls-1" d="M186.56,363.69a13.45,13.45,0,0,0-13.45-13.45H13.46a13.45,13.45,0,0,0-10,22.45L163.12,549.75a13.45,13.45,0,0,0,23.44-9Z" transform="translate(0 -350.24)"/><path id="c1b1eENXD5-2" data-name="c1b1eENXD5" class="cls-2" d="M186.56,363.69a13.45,13.45,0,0,0-13.45-13.45H13.46a13.45,13.45,0,0,0-10,22.45L163.12,549.75a13.45,13.45,0,0,0,23.44-9Z" transform="translate(0 -350.24)"/><path id="a17z44Q323" class="cls-1" d="M128.2,441.91q-20.85,0-20.85-20.85v-50q0-20.85,20.85-20.85H432.59q20.85,0,20.85,20.85v50q0,20.85-20.85,20.85Z" transform="translate(0 -350.24)"/><path id="a17z44Q323-2" data-name="a17z44Q323" class="cls-2" d="M128.2,441.91q-20.85,0-20.85-20.85v-50q0-20.85,20.85-20.85H432.59q20.85,0,20.85,20.85v50q0,20.85-20.85,20.85Z" transform="translate(0 -350.24)"/></svg>