<?xml version="1.0" encoding="utf-8"?>
<!-- Generator: Adobe Illustrator 25.3.0, SVG Export Plug-In . SVG Version: 6.00 Build 0)  -->
<svg version="1.1" id="Layer_1" xmlns="http://www.w3.org/2000/svg" xmlns:xlink="http://www.w3.org/1999/xlink" x="0px" y="0px"
	 viewBox="0 0 279.4 83.8" style="enable-background:new 0 0 279.4 83.8;" xml:space="preserve">
<style type="text/css">
	.st0{fill-rule:evenodd;clip-rule:evenodd;fill:#FE4164;}
	.st1{fill-rule:evenodd;clip-rule:evenodd;fill:#21ABDA;}
	.st2{fill-rule:evenodd;clip-rule:evenodd;fill:#FDCB70;}
	.st3{fill:none;}
	.st4{fill:#FDCB70;}
	.st5{font-family:'Montserrat-Bold';}
	.st6{font-size:47px;}
	.st7{fill:#21ABDA;}
	.st8{fill:#FE4164;}
</style>
<path class="st0" d="M25.8,71.4C11.3,69.8,0,57.5,0,42.5c0-13.8,9.6-25.3,22.4-28.3v-3H20l2.9-5l2.9-5l2.9,5l2.9,5h-2.4v9.1
	c-1.3,0-2.5,0.1-3.7,0.3c-0.1,0-0.1,0-0.2,0s-0.2,0-0.3,0.1c-0.1,0-0.2,0-0.2,0c-0.1,0-0.2,0-0.3,0.1c-0.1,0-0.2,0-0.2,0.1
	c-0.1,0-0.2,0-0.3,0.1c-0.1,0-0.2,0-0.2,0.1c-0.1,0-0.2,0-0.3,0.1c-0.1,0-0.1,0-0.2,0.1c-0.1,0-0.2,0.1-0.3,0.1
	c-0.1,0-0.1,0-0.2,0.1c-0.1,0-0.2,0.1-0.3,0.1c-0.1,0-0.1,0.1-0.2,0.1s-0.2,0.1-0.3,0.1c-0.1,0-0.1,0.1-0.2,0.1S21.6,22,21.5,22
	c-0.1,0-0.1,0-0.1,0.1c-0.2,0.1-0.5,0.2-0.7,0.3h-0.1c-0.1,0-0.2,0.1-0.3,0.1c-0.1,0-0.1,0.1-0.2,0.1s-0.2,0.1-0.3,0.1
	c-0.1,0-0.1,0.1-0.2,0.1s-0.2,0.1-0.3,0.1c-0.1,0-0.1,0.1-0.2,0.1s-0.2,0.1-0.2,0.1c-0.1,0-0.1,0.1-0.2,0.1s-0.2,0.1-0.2,0.1
	c-0.1,0-0.1,0.1-0.2,0.1s-0.2,0.1-0.2,0.1c-0.1,0-0.1,0.1-0.2,0.1c-0.1,0.1-0.2,0.1-0.2,0.2c-0.1,0-0.1,0.1-0.2,0.1
	c-0.1,0.1-0.2,0.1-0.2,0.2c-0.3-0.3-0.3-0.2-0.4-0.2c-0.1,0.1-0.2,0.1-0.2,0.2c-0.1,0-0.1,0.1-0.2,0.1c-0.1,0.1-0.3,0.2-0.4,0.3
	c-0.1,0.1-0.1,0.1-0.2,0.1c-0.1,0.1-0.1,0.1-0.2,0.2c-0.1,0-0.1,0.1-0.2,0.1c-0.1,0.1-0.1,0.1-0.2,0.2c-0.1,0.1-0.1,0.1-0.2,0.1
	c-0.1,0.1-0.1,0.1-0.2,0.2c-0.1,0.1-0.1,0.1-0.2,0.2c-0.1,0.1-0.1,0.1-0.2,0.2c-0.1,0.1-0.1,0.1-0.2,0.2c-0.1,0.1-0.1,0.1-0.2,0.2
	c-0.1,0.1-0.1,0.1-0.2,0.2c-0.1,0.1-0.1,0.1-0.2,0.2s-0.1,0.1-0.2,0.2c-0.1,0.1-0.1,0.1-0.2,0.2c-0.1,0.1-0.1,0.1-0.2,0.2
	c-0.1,0.1-0.1,0.1-0.2,0.2c-0.1,0.1-0.1,0.1-0.2,0.2c-0.1,0.1-0.1,0.1-0.2,0.2c-0.1,0.1-0.2,0.2-0.3,0.3c-0.1,0.1-0.1,0.2-0.2,0.2
	c-0.1,0.1-0.1,0.1-0.2,0.2c-0.1,0.1-0.1,0.1-0.1,0.2c-0.1,0.1-0.1,0.1-0.2,0.2c-0.1,0.1-0.1,0.1-0.1,0.2c-0.1,0.1-0.1,0.1-0.2,0.2
	c0,0.1-0.1,0.1-0.1,0.2c-0.1,0.1-0.1,0.1-0.2,0.2c-0.1,0.1-0.1,0.1-0.1,0.2c-0.1,0.1-0.1,0.2-0.2,0.2c0,0.1-0.1,0.1-0.1,0.2
	c-0.1,0.1-0.1,0.2-0.2,0.2c0,0.1-0.1,0.1-0.1,0.2c-0.1,0.1-0.1,0.2-0.1,0.2c0,0.1-0.1,0.1-0.1,0.2c-0.1,0.1-0.1,0.2-0.1,0.2
	c0,0.1-0.1,0.1-0.1,0.2c-0.1,0.1-0.1,0.2-0.2,0.3l-0.1,0.1c-0.1,0.1-0.2,0.3-0.2,0.4c0,0.1-0.1,0.1-0.1,0.2
	c-0.1,0.1-0.1,0.2-0.2,0.3C9,32.9,9,33,9,33c0,0.1-0.1,0.2-0.1,0.3c0,0.1-0.1,0.1-0.1,0.2c0,0.1-0.1,0.2-0.1,0.3
	c0,0.1-0.1,0.1-0.1,0.2s-0.1,0.2-0.1,0.3s-0.1,0.1-0.1,0.2c0,0.1-0.1,0.2-0.1,0.3S8.2,35,8.2,35c0,0.1-0.1,0.2-0.1,0.3
	S8,35.5,8,35.5c0,0.1-0.1,0.2-0.1,0.3s0,0.1-0.1,0.2c0,0.1-0.1,0.2-0.1,0.3s0,0.1-0.1,0.2c0,0.1-0.1,0.3-0.1,0.4c0,0,0,0,0,0.1
	c0,0.2-0.1,0.3-0.1,0.5v0.1c0,0.1-0.1,0.2-0.1,0.4c0,0.1,0,0.1,0,0.2c0,0.1,0,0.2-0.1,0.3c0,0.1,0,0.1,0,0.2c0,0.1,0,0.2-0.1,0.3
	c0,0.1,0,0.2,0,0.2c0,0.1,0,0.2,0,0.3s0,0.2,0,0.2c0,0.1,0,0.2,0,0.3s0,0.2,0,0.2c0,0.1,0,0.2,0,0.3s0,0.2,0,0.2c0,0.1,0,0.2,0,0.3
	s0,0.1,0,0.2c0,0.1,0,0.2,0,0.4c0,0.1,0,0.1,0,0.2c0,0.2,0,0.4,0,0.6c0,0.2,0,0.4,0,0.6c0,0.1,0,0.1,0,0.2c0,0.1,0,0.2,0,0.4
	c0,0.1,0,0.1,0,0.2c0,0.1,0,0.2,0,0.3s0,0.2,0,0.2c0,0.1,0,0.2,0,0.3s0,0.2,0,0.2c0,0.1,0,0.2,0,0.3s0,0.2,0,0.2c0,0.1,0,0.2,0,0.3
	s0,0.2,0,0.2c0,0.1,0,0.2,0.1,0.3c0,0.1,0,0.2,0,0.2c0,0.1,0,0.2,0.1,0.3c0,0.1,0,0.1,0,0.2c0,0.1,0.1,0.2,0.1,0.4
	c0,0.1,0,0.1,0,0.1c0,0.2,0.1,0.3,0.1,0.5v0.1c0,0.1,0.1,0.3,0.1,0.4c0,0.1,0,0.1,0.1,0.2c0,0.1,0.1,0.2,0.1,0.3s0,0.1,0.1,0.2
	c0,0.1,0.1,0.2,0.1,0.3s0.1,0.2,0.1,0.2c0,0.1,0.1,0.2,0.1,0.3s0.1,0.1,0.1,0.2c0,0.1,0.1,0.2,0.1,0.3s0.1,0.1,0.1,0.2
	c0,0.1,0.1,0.2,0.1,0.3s0.1,0.1,0.1,0.2c0,0.1,0.1,0.2,0.1,0.3s0.1,0.1,0.1,0.2c0,0.1,0.1,0.2,0.1,0.3s0.1,0.1,0.1,0.2
	c0.1,0.1,0.1,0.2,0.2,0.3c0,0.1,0.1,0.1,0.1,0.2c0.1,0.2,0.2,0.3,0.2,0.5c0,0.1,0.1,0.1,0.1,0.1c0.1,0.1,0.1,0.2,0.2,0.3
	c0,0.1,0.1,0.1,0.1,0.2c0,0.1,0.1,0.2,0.1,0.3s0.1,0.1,0.1,0.2c0,0.1,0.1,0.2,0.1,0.2c0,0.1,0.1,0.1,0.1,0.2
	c0.1,0.1,0.1,0.2,0.2,0.2c0,0.1,0.1,0.1,0.1,0.2c0.1,0.1,0.1,0.2,0.2,0.2c0.1,0.1,0.1,0.1,0.1,0.2c0.1,0.1,0.1,0.1,0.2,0.2
	c0.1,0.1,0.1,0.1,0.1,0.2c0.1,0.1,0.1,0.1,0.2,0.2c0.1,0.1,0.1,0.1,0.1,0.2c0.1,0.1,0.1,0.1,0.2,0.2c0,0.1,0.1,0.1,0.1,0.2
	c0.1,0.1,0.1,0.1,0.2,0.2c0.1,0.1,0.1,0.2,0.2,0.2c0.1,0.1,0.2,0.2,0.3,0.3s0.1,0.1,0.2,0.2c0.1,0.1,0.1,0.1,0.2,0.2
	c0.1,0.1,0.1,0.1,0.2,0.2c0.1,0.1,0.1,0.1,0.2,0.2c0.1,0.1,0.1,0.1,0.2,0.2c0.1,0.1,0.1,0.1,0.2,0.2s0.1,0.1,0.2,0.2
	c0,0.2,0,0.3,0.1,0.3c0.1,0.1,0.1,0.1,0.2,0.2c0.1,0.1,0.1,0.1,0.2,0.2c0.1,0.1,0.1,0.1,0.2,0.2c0.1,0.1,0.1,0.1,0.2,0.2
	c0.1,0.1,0.1,0.1,0.2,0.2c0.1,0.1,0.1,0.1,0.2,0.1c0.1,0.1,0.1,0.1,0.2,0.2s0.1,0.1,0.2,0.1c0.1,0.1,0.1,0.1,0.2,0.2
	c0.1,0.1,0.1,0.1,0.2,0.2c0.1,0.1,0.3,0.2,0.4,0.3c0.1,0,0.1,0.1,0.2,0.1c0.1,0.1,0.2,0.1,0.2,0.2c0.1,0,0.1,0.1,0.2,0.1
	c0.1,0.1,0.2,0.1,0.2,0.2c0.1,0,0.1,0.1,0.2,0.1c0.1,0.1,0.2,0.1,0.2,0.1c0.1,0,0.1,0.1,0.2,0.1C18,62,18.1,62,18.1,62
	s0.1,0.1,0.2,0.1s0.2,0.1,0.2,0.1c0.1,0,0.1,0.1,0.2,0.1s0.2,0.1,0.2,0.1c0.1,0,0.1,0.1,0.2,0.1s0.2,0.1,0.3,0.1
	c0.1,0,0.1,0.1,0.2,0.1s0.2,0.1,0.3,0.1c0.1,0,0.1,0.1,0.2,0.1s0.2,0.1,0.3,0.1h0.1c0.2,0.1,0.5,0.2,0.7,0.3c0.1,0,0.1,0,0.1,0.1
	c0.1,0,0.2,0.1,0.3,0.1c0.1,0,0.1,0.1,0.2,0.1s0.2,0.1,0.3,0.1c0.1,0,0.1,0,0.2,0.1c0.1,0,0.2,0.1,0.3,0.1c0.1,0,0.1,0,0.2,0.1
	c0.1,0,0.2,0.1,0.3,0.1c0.1,0,0.1,0,0.2,0.1c0.1,0,0.2,0,0.3,0.1c0.1,0,0.2,0,0.2,0.1c0.1,0,0.2,0,0.3,0.1c0.1,0,0.2,0,0.2,0
	c0.1,0,0.2,0,0.3,0.1c0.1,0,0.2,0,0.2,0c0.1,0,0.2,0,0.3,0.1c0.1,0,0.1,0,0.2,0s0.2,0,0.3,0.1v6.6H25.8z"/>
<path class="st1" d="M32.5,13.6c14.5,1.7,25.8,14,25.8,28.9c0,13.8-9.6,25.3-22.4,28.3v3h2.4l-2.9,5l-2.9,5l-2.9-5l-2.9-5h2.4v-9
	c1.3,0,2.5-0.1,3.7-0.3c0.1,0,0.1,0,0.2,0c0.1,0,0.2,0,0.3-0.1c0.1,0,0.2,0,0.2,0c0.1,0,0.2,0,0.3-0.1c0.1,0,0.1,0,0.2,0
	c0.1,0,0.2-0.1,0.3-0.1s0.1,0,0.2-0.1c0.1,0,0.2,0,0.3-0.1c0.1,0,0.1,0,0.2-0.1c0.1,0,0.2-0.1,0.3-0.1s0.1,0,0.2-0.1
	c0.1,0,0.2-0.1,0.3-0.1s0.1,0,0.2-0.1c0.1,0,0.2-0.1,0.3-0.1s0.1,0,0.2-0.1c0.1,0,0.2-0.1,0.3-0.1c0,0,0.1,0,0.1-0.1
	c0.2-0.1,0.5-0.2,0.7-0.3h0.1c0.1,0,0.2-0.1,0.3-0.1s0.1-0.1,0.2-0.1c0.1,0,0.2-0.1,0.3-0.1s0.1-0.1,0.2-0.1c0.1,0,0.2-0.1,0.3-0.1
	s0.1-0.1,0.2-0.1c0.1,0,0.2-0.1,0.3-0.1s0.1-0.1,0.2-0.1c0.1-0.1,0.2-0.1,0.2-0.1c0.1,0,0.1-0.1,0.2-0.1c0.1,0,0.2-0.1,0.2-0.1
	c0.1,0,0.1-0.1,0.2-0.1c0.1,0,0.2-0.1,0.2-0.1c0.1,0,0.1-0.1,0.2-0.1c0.1-0.1,0.2-0.1,0.2-0.2c0.1,0,0.1-0.1,0.2-0.1
	c0.1-0.1,0.2-0.1,0.2-0.2c0.1,0,0.1-0.1,0.2-0.1c0.1-0.1,0.3-0.2,0.4-0.3c0.1-0.1,0.1-0.1,0.2-0.2c0.1-0.1,0.1-0.1,0.2-0.2
	c0.1-0.1,0.1-0.1,0.2-0.1c0.1-0.1,0.1-0.1,0.2-0.2c0.1-0.1,0.1-0.1,0.2-0.1c0.1-0.1,0.1-0.1,0.2-0.2c0.1-0.1,0.1-0.1,0.2-0.2
	c0.1-0.1,0.1-0.1,0.2-0.2c0.1-0.1,0.1-0.1,0.2-0.2c0.1-0.1,0.1-0.1,0.2-0.2s0.1-0.1,0.2-0.2c0.1-0.1,0.1-0.1,0.2-0.2
	s0.1-0.1,0.2-0.2s0.1-0.1,0.2-0.2c0.1-0.1,0.1-0.1,0.2-0.2c0.1-0.1,0.1-0.1,0.2-0.2c0.1-0.1,0.1-0.1,0.2-0.2
	c0.1-0.1,0.1-0.1,0.2-0.2c0.1-0.1,0.2-0.2,0.3-0.3s0.1-0.2,0.2-0.2c0.1-0.1,0.1-0.1,0.2-0.2c0-0.1,0.1-0.1,0.1-0.2
	c0.1-0.1,0.1-0.1,0.2-0.2c0.1-0.1,0.1-0.1,0.2-0.2s0.1-0.1,0.2-0.2c0.1-0.1,0.1-0.1,0.1-0.2c0.1-0.1,0.1-0.1,0.2-0.2
	c0.1-0.1,0.1-0.1,0.1-0.2c0.1-0.1,0.1-0.2,0.2-0.2c0-0.1,0.1-0.1,0.1-0.2c0.1-0.1,0.1-0.2,0.1-0.2c0-0.1,0.1-0.1,0.1-0.2
	c0-0.1,0.1-0.2,0.1-0.2c0-0.1,0.1-0.1,0.1-0.2c0-0.1,0.1-0.2,0.1-0.3s0.1-0.1,0.1-0.2c0.1-0.1,0.1-0.2,0.2-0.3
	c0-0.1,0.1-0.1,0.1-0.1c0.1-0.1,0.2-0.3,0.2-0.5c0-0.1,0.1-0.1,0.1-0.2c0.1-0.1,0.1-0.2,0.2-0.3c0-0.1,0.1-0.1,0.1-0.2
	c0-0.1,0.1-0.2,0.1-0.3s0.1-0.1,0.1-0.2c0-0.1,0.1-0.2,0.1-0.3s0.1-0.1,0.1-0.2c0-0.1,0.1-0.2,0.1-0.3s0.1-0.1,0.1-0.2
	c0-0.1,0.1-0.2,0.1-0.3s0.1-0.2,0.1-0.2c0-0.1,0.1-0.2,0.1-0.3s0.1-0.1,0.1-0.2c0-0.1,0.1-0.2,0.1-0.3s0.1-0.1,0.1-0.2
	c0-0.1,0.1-0.2,0.1-0.3s0-0.1,0.1-0.2c0-0.1,0.1-0.3,0.1-0.4v-0.1c0-0.2,0.1-0.3,0.1-0.5c0-0.1,0-0.1,0-0.1c0-0.1,0.1-0.2,0.1-0.4
	c0-0.1,0-0.1,0-0.2c0-0.1,0-0.2,0.1-0.3c0-0.1,0-0.1,0-0.2c0-0.1,0-0.2,0.1-0.3c0-0.1,0-0.2,0-0.2c0-0.1,0-0.2,0-0.3s0-0.2,0-0.2
	c0-0.1,0-0.2,0-0.3s0-0.2,0-0.2c0-0.1,0-0.2,0-0.3s0-0.2,0-0.2c0-0.1,0-0.2,0-0.3s0-0.1,0-0.2c0-0.1,0-0.2,0-0.4c0-0.1,0-0.1,0-0.2
	c0-0.2,0-0.4,0-0.6c0-0.2,0-0.4,0-0.6c0-0.1,0-0.1,0-0.2c0-0.1,0-0.2,0-0.4c0-0.1,0-0.1,0-0.2c0-0.1,0-0.2,0-0.3s0-0.2,0-0.2
	c0-0.1,0-0.2,0-0.3s0-0.2,0-0.2c0-0.1,0-0.2,0-0.3s0-0.2,0-0.2c0-0.1,0-0.2,0-0.3s0-0.1,0-0.2c0-0.1,0-0.2-0.1-0.3
	c0-0.1,0-0.1,0-0.2c0-0.1,0-0.2-0.1-0.3c0-0.1,0-0.1,0-0.2c0-0.1-0.1-0.2-0.1-0.4c0-0.1,0-0.1,0-0.1c0-0.2-0.1-0.3-0.1-0.5v-0.1
	c0-0.1-0.1-0.3-0.1-0.4c0-0.1,0-0.1-0.1-0.2c0-0.1-0.1-0.2-0.1-0.3s0-0.1-0.1-0.2c0-0.1-0.1-0.2-0.1-0.3s-0.1-0.1-0.1-0.2
	c0-0.1-0.1-0.2-0.1-0.3S50,34.8,50,34.7c0-0.1-0.1-0.2-0.1-0.3s-0.1-0.1-0.1-0.2c0-0.1-0.1-0.2-0.1-0.3c0-0.1-0.1-0.1-0.1-0.2
	c0-0.1-0.1-0.2-0.1-0.3c0-0.1-0.1-0.1-0.1-0.2c-0.1-0.1-0.1-0.2-0.1-0.3c0-0.1-0.1-0.1-0.1-0.2c0-0.1-0.1-0.2-0.2-0.3
	c0-0.1-0.1-0.1-0.1-0.2c-0.1-0.1-0.2-0.3-0.2-0.4s-0.1-0.1-0.1-0.1c-0.1-0.1-0.1-0.2-0.2-0.3c0-0.1-0.1-0.1-0.1-0.2
	c-0.1-0.1-0.1-0.2-0.1-0.2c0-0.1-0.1-0.1-0.1-0.2C48,30.7,48,30.6,48,30.6c0-0.1-0.1-0.1-0.1-0.2c-0.1-0.1-0.1-0.2-0.1-0.2
	c-0.1-0.1-0.1-0.1-0.1-0.2c-0.1-0.1-0.1-0.2-0.2-0.2c0-0.1-0.1-0.1-0.1-0.2c-0.1-0.1-0.1-0.1-0.2-0.2c0-0.1-0.1-0.1-0.1-0.2
	C47,29.1,47,29.1,46.9,29c-0.1-0.1-0.1-0.1-0.2-0.2c-0.1-0.1-0.1-0.1-0.2-0.2c-0.1-0.1-0.1-0.1-0.1-0.2c-0.1-0.1-0.1-0.1-0.2-0.2
	c-0.1-0.2-0.2-0.3-0.3-0.3c-0.1-0.1-0.2-0.2-0.3-0.3c-0.1-0.1-0.1-0.1-0.2-0.2c-0.1-0.1-0.1-0.1-0.2-0.2c-0.1-0.1-0.1-0.1-0.2-0.2
	c0.1-0.1,0-0.1,0-0.2s-0.1-0.1-0.2-0.2s-0.1-0.1-0.2-0.2s-0.1-0.1-0.2-0.2s-0.1-0.1-0.2-0.2c-0.1-0.1-0.1-0.1-0.2-0.2
	c-0.1-0.1-0.1-0.1-0.2-0.2c-0.1-0.1-0.1-0.1-0.2-0.2c-0.1-0.1-0.1-0.1-0.2-0.2c-0.1-0.1-0.1-0.1-0.2-0.2c-0.1-0.1-0.1-0.1-0.2-0.1
	c-0.1-0.1-0.1-0.1-0.2-0.2c-0.1-0.1-0.1-0.1-0.2-0.1c-0.1-0.1-0.1-0.1-0.2-0.2c-0.1-0.1-0.1-0.1-0.2-0.1c-0.1-0.1-0.3-0.2-0.4-0.3
	c-0.1,0-0.1-0.1-0.2-0.1c-0.1-0.1-0.2-0.1-0.2-0.2c-0.1,0-0.1-0.1-0.2-0.1c-0.1-0.1-0.2-0.1-0.2-0.2c-0.1,0-0.1-0.1-0.2-0.1
	c-0.1-0.1-0.2-0.1-0.2-0.2c-0.1,0-0.1-0.1-0.2-0.1c-0.1-0.1-0.2-0.1-0.2-0.1c-0.1,0-0.1-0.1-0.2-0.1c-0.1,0-0.2-0.1-0.2-0.1
	c-0.1,0-0.1-0.1-0.2-0.1c-0.1,0-0.2-0.1-0.3-0.1s-0.1-0.1-0.2-0.1c-0.1,0-0.2-0.1-0.3-0.1s-0.1-0.1-0.2-0.1c-0.1,0-0.2-0.1-0.3-0.1
	S38.2,22,38.1,22c-0.1,0-0.2-0.1-0.3-0.1h-0.1c-0.2-0.1-0.5-0.2-0.7-0.3c-0.1,0-0.1,0-0.1-0.1c-0.1,0-0.2-0.1-0.3-0.1
	s-0.1-0.1-0.2-0.1c-0.1,0-0.2-0.1-0.3-0.1s-0.1,0-0.2-0.1c-0.1,0-0.2-0.1-0.3-0.1s-0.1,0-0.2-0.1c-0.1,0-0.2-0.1-0.3-0.1
	s-0.2,0-0.2-0.1c-0.1,0-0.2-0.1-0.3-0.1s-0.1,0-0.2-0.1c-0.1,0-0.2,0-0.3-0.1c-0.1,0-0.1,0-0.2-0.1c-0.1,0-0.2,0-0.3-0.1
	c-0.1,0-0.1,0-0.2,0c-0.1,0-0.2,0-0.3-0.1c-0.1,0-0.1,0-0.2,0c-0.1,0-0.2,0-0.3-0.1L32.5,13.6L32.5,13.6z"/>
<path class="st2" d="M29.2,30.7c4.4,0,8.2,2.4,10.2,5.9l5.1-2.9l1-0.6c-3.3-5.6-9.4-9.4-16.3-9.4c-10.4,0-18.9,8.4-18.9,18.8
	s8.4,18.8,18.9,18.8c7,0,13.1-3.8,16.3-9.4l-1-0.6l-5.1-2.9c-2,3.5-5.9,5.9-10.2,5.9c-6.5,0-11.8-5.3-11.8-11.8S22.6,30.7,29.2,30.7
	z"/>
<rect x="58.3" y="25.6" class="st3" width="290.4" height="62.3"/>
<text transform="matrix(1 0 0 1 58.31 60.4776)" class="st4 st5 st6">onvert</text>
<text transform="matrix(1 0 0 1 220.01 60.4776)" class="st7 st5 st6">e</text>
<text transform="matrix(1 0 0 1 249.71 60.4776)" class="st8 st5 st6">x</text>
</svg>
